HIERARCHY
ROOT pelvis
{
	OFFSET 0.003123 -0.351407 0.012037
	CHANNELS 6 Xposition Yposition Zposition Zrotation Yrotation Xrotation 
	JOINT left_hip
	{
		OFFSET 0.058189 -0.092763 -0.026001
		CHANNELS 3 Zrotation Yrotation Xrotation
		JOINT left_knee
		{
			OFFSET 0.054695 -0.378753 -0.009396
			CHANNELS 3 Zrotation Yrotation Xrotation
			JOINT left_ankle
			{
				OFFSET -0.043453 -0.403059 -0.031876
				CHANNELS 3 Zrotation Yrotation Xrotation
				JOINT left_foot
				{
					OFFSET 0.047257 -0.057997 0.118216
					CHANNELS 3 Zrotation Yrotation Xrotation
					End Site
					{
						OFFSET 0.000000 0.000000 0.000000
					}
				}
			}
		}
	}
	JOINT right_hip
	{
		OFFSET -0.063267 -0.103908 -0.021250
		CHANNELS 3 Zrotation Yrotation Xrotation
		JOINT right_knee
		{
			OFFSET -0.044210 -0.362380 -0.016824
			CHANNELS 3 Zrotation Yrotation Xrotation
			JOINT right_ankle
			{
				OFFSET 0.015417 -0.410728 -0.020192
				CHANNELS 3 Zrotation Yrotation Xrotation
				JOINT right_foot
				{
					OFFSET -0.038812 -0.058328 0.119049
					CHANNELS 3 Zrotation Yrotation Xrotation
					End Site
					{
						OFFSET 0.000000 0.000000 0.000000
					}
				}
			}
		}
	}
	JOINT spine_1
	{
		OFFSET -0.002763 0.109891 -0.027618
		CHANNELS 3 Zrotation Yrotation Xrotation
		JOINT spine_2
		{
			OFFSET 0.009448 0.131853 -0.005940
			CHANNELS 3 Zrotation Yrotation Xrotation
			JOINT spine_3
			{
				OFFSET -0.011330 0.052235 0.028447
				CHANNELS 3 Zrotation Yrotation Xrotation
				JOINT neck
				{
					OFFSET -0.012164 0.165167 -0.031615
					CHANNELS 3 Zrotation Yrotation Xrotation
					JOINT head
					{
						OFFSET 0.024783 0.160452 0.020737
						CHANNELS 3 Zrotation Yrotation Xrotation
						End Site
						{
							OFFSET 0.000000 0.000000 0.000000
						}
					}
				}
				JOINT left_collar
				{
					OFFSET 0.046364 0.084944 -0.007220
					CHANNELS 3 Zrotation Yrotation Xrotation
					JOINT left_shoulder
					{
						OFFSET 0.119239 0.057728 -0.015461
						CHANNELS 3 Zrotation Yrotation Xrotation
						JOINT left_elbow
						{
							OFFSET 0.254123 -0.072151 -0.042459
							CHANNELS 3 Zrotation Yrotation Xrotation
							JOINT left_wrist
							{
								OFFSET 0.251987 0.023221 -0.002472
								CHANNELS 3 Zrotation Yrotation Xrotation
								JOINT left_index_1
								{
									OFFSET 0.101902 -0.008688 0.019351
									CHANNELS 3 Zrotation Yrotation Xrotation
									JOINT left_index_2
									{
										OFFSET 0.030149 -0.011154 0.001151
										CHANNELS 3 Zrotation Yrotation Xrotation
										JOINT left_index_3
										{
											OFFSET 0.006504 -0.021577 -0.002433
											CHANNELS 3 Zrotation Yrotation Xrotation
											End Site
											{
												OFFSET 0.000000 0.000000 0.000000
											}
										}
									}
								}
								JOINT left_middle_1
								{
									OFFSET 0.109398 -0.006328 -0.003981
									CHANNELS 3 Zrotation Yrotation Xrotation
									JOINT left_middle_2
									{
										OFFSET 0.026472 -0.015218 -0.004641
										CHANNELS 3 Zrotation Yrotation Xrotation
										JOINT left_middle_3
										{
											OFFSET 0.005022 -0.023347 -0.001911
											CHANNELS 3 Zrotation Yrotation Xrotation
											End Site
											{
												OFFSET 0.000000 0.000000 0.000000
											}
										}
									}
								}
								JOINT left_pinky_1
								{
									OFFSET 0.084047 -0.014539 -0.043750
									CHANNELS 3 Zrotation Yrotation Xrotation
									JOINT left_pinky_2
									{
										OFFSET 0.012124 -0.014448 -0.005375
										CHANNELS 3 Zrotation Yrotation Xrotation
										JOINT left_pinky_3
										{
											OFFSET 0.003798 -0.018853 0.000167
											CHANNELS 3 Zrotation Yrotation Xrotation
											End Site
											{
												OFFSET 0.000000 0.000000 0.000000
											}
										}
									}
								}
								JOINT left_ring_1
								{
									OFFSET 0.097444 -0.009268 -0.027345
									CHANNELS 3 Zrotation Yrotation Xrotation
									JOINT left_ring_2
									{
										OFFSET 0.023561 -0.016057 -0.001895
										CHANNELS 3 Zrotation Yrotation Xrotation
										JOINT left_ring_3
										{
											OFFSET 0.004257 -0.023548 0.000814
											CHANNELS 3 Zrotation Yrotation Xrotation
											End Site
											{
												OFFSET 0.000000 0.000000 0.000000
											}
										}
									}
								}
								JOINT left_thumb_1
								{
									OFFSET 0.040636 -0.017977 0.025611
									CHANNELS 3 Zrotation Yrotation Xrotation
									JOINT left_thumb_2
									{
										OFFSET 0.021637 -0.017639 0.011623
										CHANNELS 3 Zrotation Yrotation Xrotation
										JOINT left_thumb_3
										{
											OFFSET 0.024002 -0.008356 0.006548
											CHANNELS 3 Zrotation Yrotation Xrotation
											End Site
											{
												OFFSET 0.000000 0.000000 0.000000
											}
										}
									}
								}
							}
						}
					}
				}
				JOINT right_collar
				{
					OFFSET -0.047695 0.084339 -0.013400
					CHANNELS 3 Zrotation Yrotation Xrotation
					JOINT right_shoulder
					{
						OFFSET -0.102578 0.053524 -0.012669
						CHANNELS 3 Zrotation Yrotation Xrotation
						JOINT right_elbow
						{
							OFFSET -0.271150 -0.036492 -0.026467
							CHANNELS 3 Zrotation Yrotation Xrotation
							JOINT right_wrist
							{
								OFFSET -0.249267 -0.004533 -0.015325
								CHANNELS 3 Zrotation Yrotation Xrotation
								JOINT right_index_1
								{
									OFFSET -0.099881 -0.011783 0.019600
									CHANNELS 3 Zrotation Yrotation Xrotation
									JOINT right_index_2
									{
										OFFSET -0.030148 -0.011154 0.001151
										CHANNELS 3 Zrotation Yrotation Xrotation
										JOINT right_index_3
										{
											OFFSET -0.006505 -0.021577 -0.002432
											CHANNELS 3 Zrotation Yrotation Xrotation
											End Site
											{
												OFFSET 0.000000 0.000000 0.000000
											}
										}
									}
								}
								JOINT right_middle_1
								{
									OFFSET -0.107376 -0.009422 -0.003734
									CHANNELS 3 Zrotation Yrotation Xrotation
									JOINT right_middle_2
									{
										OFFSET -0.026472 -0.015218 -0.004641
										CHANNELS 3 Zrotation Yrotation Xrotation
										JOINT right_middle_3
										{
											OFFSET -0.005022 -0.023347 -0.001911
											CHANNELS 3 Zrotation Yrotation Xrotation
											End Site
											{
												OFFSET 0.000000 0.000000 0.000000
											}
										}
									}
								}
								JOINT right_pinky_1
								{
									OFFSET -0.082027 -0.017634 -0.043503
									CHANNELS 3 Zrotation Yrotation Xrotation
									JOINT right_pinky_2
									{
										OFFSET -0.012123 -0.014448 -0.005374
										CHANNELS 3 Zrotation Yrotation Xrotation
										JOINT right_pinky_3
										{
											OFFSET -0.003798 -0.018852 0.000167
											CHANNELS 3 Zrotation Yrotation Xrotation
											End Site
											{
												OFFSET 0.000000 0.000000 0.000000
											}
										}
									}
								}
								JOINT right_ring_1
								{
									OFFSET -0.095423 -0.012362 -0.027099
									CHANNELS 3 Zrotation Yrotation Xrotation
									JOINT right_ring_2
									{
										OFFSET -0.023561 -0.016057 -0.001895
										CHANNELS 3 Zrotation Yrotation Xrotation
										JOINT right_ring_3
										{
											OFFSET -0.004257 -0.023548 0.000816
											CHANNELS 3 Zrotation Yrotation Xrotation
											End Site
											{
												OFFSET 0.000000 0.000000 0.000000
											}
										}
									}
								}
								JOINT right_thumb_1
								{
									OFFSET -0.038613 -0.021074 0.025861
									CHANNELS 3 Zrotation Yrotation Xrotation
									JOINT right_thumb_2
									{
										OFFSET -0.021636 -0.017639 0.011623
										CHANNELS 3 Zrotation Yrotation Xrotation
										JOINT right_thumb_3
										{
											OFFSET -0.024004 -0.008353 0.006547
											CHANNELS 3 Zrotation Yrotation Xrotation
											End Site
											{
												OFFSET 0.000000 0.000000 0.000000
											}
										}
									}
								}
							}
						}
					}
				}
			}
		}
	}
}
MOTION
Frames: 7
Frame Time: 0.050000
0.000027 0.861483 0.000587 0.103556 -4.281034 -4.854943 24.203207 0.044037 -0.073053 -0.956166 -1.164443 13.019652 3.615763 12.845286 11.194622 0.000000 0.000000 0.000000 -27.055750 1.467739 -1.263071 5.197163 -0.218892 19.013007 -3.743220 -10.247697 5.947241 0.000000 0.000000 0.000000 -2.294551 -1.413656 28.245996 -6.123309 0.353178 -10.343285 6.180327 -2.513017 2.784289 3.988835 1.722586 -12.298595 0.000000 0.000000 0.000000 8.120496 13.319250 -4.778848 -81.151778 -48.781366 13.793819 -178.768769 -57.415335 -163.412984 31.163888 -13.362037 -45.856123 -1.746789 -12.923835 -0.910799 -3.292373 -12.887194 -30.661197 0.000000 0.000000 0.000000 -10.129563 -27.897910 -8.709292 11.387760 -3.318355 -26.575972 0.000000 0.000000 0.000000 8.659011 -19.659210 -26.019780 15.191701 0.339825 1.518694 0.000000 0.000000 0.000000 -8.701489 -23.602256 -10.728675 20.791871 -0.161031 -18.813175 0.000000 0.000000 0.000000 36.961349 12.253656 -8.458520 -30.307903 -10.678442 7.214913 0.000000 0.000000 0.000000 -10.043802 2.508389 2.646553 83.586300 60.529030 33.292276 -148.981835 45.193972 -109.045794 -21.158735 9.527111 -54.777418 3.996737 11.241531 -0.127674 -0.263344 19.579099 -34.653770 0.000000 0.000000 0.000000 15.805626 28.500357 -6.944380 -11.153758 5.641291 -30.580432 0.000000 0.000000 0.000000 -1.484722 22.215655 -26.534640 -17.117844 0.027791 0.652761 0.000000 0.000000 0.000000 13.954478 25.614466 -9.071629 -23.299257 0.755273 -21.258750 0.000000 0.000000 0.000000 -40.003892 -9.159380 -8.754466 31.034486 6.418280 8.636778 0.000000 0.000000 0.000000 
-0.001622 0.853746 -0.004692 0.115268 -3.927533 -5.487832 26.298679 0.205446 -1.893804 -3.985917 -0.785556 16.525942 3.714452 12.449954 9.860187 0.000000 0.000000 0.000000 -29.134386 1.323852 -2.715390 8.265552 -0.920266 21.658525 -3.983839 -10.563188 5.773466 0.000000 0.000000 0.000000 -2.562194 -1.451076 30.714371 -6.079102 0.272647 -10.631701 6.400309 -2.569422 1.247807 3.920086 1.825320 -12.720204 0.000000 0.000000 0.000000 7.747527 13.610692 -4.932116 -81.549918 -48.498011 13.704004 -177.314741 -56.845388 -166.109080 30.759660 -13.789546 -45.361146 -3.297522 -13.152570 -0.622253 -0.718382 -10.140582 -29.818884 0.000000 0.000000 0.000000 -12.215213 -28.160050 -8.288749 11.418903 -3.348207 -27.238851 0.000000 0.000000 0.000000 7.515969 -19.634276 -25.775262 14.976608 0.310763 1.403870 0.000000 0.000000 0.000000 -8.309472 -22.871272 -10.609594 20.590818 -0.160025 -18.567246 0.000000 0.000000 0.000000 35.527023 11.045335 -9.253227 -28.971289 -8.780680 6.856754 0.000000 0.000000 0.000000 -9.722168 2.519324 2.620518 82.361485 60.196063 32.325151 -149.682378 44.744332 -110.082172 -21.473115 9.765957 -54.414622 3.319006 10.596995 -0.277333 3.981226 22.349751 -34.337019 0.000000 0.000000 0.000000 15.113062 29.148075 -7.217151 -12.869867 4.898789 -29.805566 0.000000 0.000000 0.000000 -2.146562 22.015369 -26.597054 -17.324344 0.012014 0.744992 0.000000 0.000000 0.000000 13.335790 25.223351 -9.225677 -23.606996 0.662722 -21.190157 0.000000 0.000000 0.000000 -39.659043 -9.140701 -8.811155 31.118428 6.795695 8.637624 0.000000 0.000000 0.000000 
-0.005038 0.842464 -0.011292 0.100288 -4.424660 -6.386954 29.607146 0.567335 -3.294034 -8.577371 0.235730 20.303430 3.891517 12.226704 8.768364 0.000000 0.000000 0.000000 -31.955426 1.132114 -5.083571 12.939230 -2.113429 24.375895 -4.934848 -12.634758 7.020873 0.000000 0.000000 0.000000 -2.896008 -1.405547 32.676112 -6.271869 0.255983 -10.936465 6.553662 -1.653388 0.727094 4.070168 2.073501 -13.969511 0.000000 0.000000 0.000000 7.282025 12.945882 -4.704032 -81.731467 -49.692717 14.186725 -177.354156 -56.618235 -165.965202 30.088336 -13.362767 -45.065487 -2.559177 -12.253061 -0.794524 -3.814788 -12.111334 -29.697798 0.000000 0.000000 0.000000 -11.103151 -28.208313 -8.614307 12.365270 -2.786253 -25.200980 0.000000 0.000000 0.000000 8.915023 -19.591503 -26.071729 14.878162 0.514654 2.379896 0.000000 0.000000 0.000000 -9.000387 -23.673073 -10.715339 21.031482 0.014279 -18.025475 0.000000 0.000000 0.000000 35.345368 11.037432 -9.174740 -29.034379 -8.806250 6.903157 0.000000 0.000000 0.000000 -8.681905 1.237334 1.907481 81.632204 59.607290 31.734446 -151.349264 44.648312 -113.566739 -22.227097 10.876815 -53.876852 4.555223 11.199662 -0.110744 5.686423 20.917193 -33.023964 0.000000 0.000000 0.000000 16.964253 28.739077 -6.681338 -12.854267 4.633975 -30.172156 0.000000 0.000000 0.000000 -2.659920 21.021055 -25.833769 -14.604643 0.235044 -0.805158 0.000000 0.000000 0.000000 14.781237 25.463106 -8.828046 -23.449627 0.520007 -20.361201 0.000000 0.000000 0.000000 -39.087407 -9.365611 -8.928836 31.175761 6.581918 8.562723 0.000000 0.000000 0.000000 
-0.006687 0.830860 -0.016571 0.026680 -3.965634 -6.636932 32.479543 0.960961 -5.606256 -12.164657 1.204620 23.557588 3.508593 11.394737 8.223403 0.000000 0.000000 0.000000 -34.697361 0.764697 -7.059702 17.267516 -3.500274 26.904890 -5.732267 -14.164373 7.823439 0.000000 0.000000 0.000000 -2.996566 -1.471646 35.161505 -6.038116 0.067556 -11.331989 6.678288 -2.311797 -0.883918 4.086075 2.252374 -14.768464 0.000000 0.000000 0.000000 6.719135 13.661313 -5.114845 -82.102670 -49.343490 14.283771 -176.398933 -56.289917 -167.920092 29.378082 -13.597898 -44.336828 -2.505019 -12.440897 -0.850101 -4.292463 -11.971021 -29.473482 0.000000 0.000000 0.000000 -10.950220 -28.270792 -8.773943 12.101533 -2.779044 -24.980957 0.000000 0.000000 0.000000 9.275962 -19.206339 -25.726446 12.862033 0.247810 0.668670 0.000000 0.000000 0.000000 -8.720341 -22.393866 -10.378937 20.113319 -0.349997 -18.979793 0.000000 0.000000 0.000000 35.228980 11.127607 -9.159629 -28.721713 -8.789167 6.709291 0.000000 0.000000 0.000000 -7.934672 1.316930 1.883807 80.491703 59.329271 30.647556 -152.586416 44.532204 -116.317907 -22.690470 11.206308 -53.616884 6.670676 11.702389 0.286099 2.624002 16.649965 -32.128400 0.000000 0.000000 0.000000 16.698662 28.086775 -6.669273 -12.793882 4.343640 -28.978359 0.000000 0.000000 0.000000 -1.401536 21.671052 -26.092351 -17.106391 -0.190937 1.810020 0.000000 0.000000 0.000000 14.406803 24.952951 -8.796136 -23.303462 0.413307 -19.623488 0.000000 0.000000 0.000000 -37.818764 -9.104757 -9.047614 31.700283 7.499889 8.616033 0.000000 0.000000 0.000000 
-0.006687 0.818611 -0.019211 0.090336 -4.369378 -6.734866 35.153312 1.461574 -7.073409 -15.844989 2.457056 25.970033 3.571743 11.422658 8.098976 0.000000 0.000000 0.000000 -37.630081 0.455790 -9.176748 21.370656 -4.954206 29.523251 -6.011891 -14.433833 7.275523 0.000000 0.000000 0.000000 -3.303182 -1.406504 37.455632 -6.105735 0.107931 -11.239285 6.958232 -2.613622 -2.464713 4.122922 2.427442 -15.538300 0.000000 0.000000 0.000000 6.274603 13.973442 -5.352363 -82.017979 -49.099493 14.333555 -176.148171 -56.232021 -168.596127 29.335396 -13.472486 -44.087029 -3.355506 -12.239509 -0.705091 -3.318936 -11.548055 -30.042743 0.000000 0.000000 0.000000 -11.408393 -27.793221 -8.545062 8.085823 -4.036675 -25.942520 0.000000 0.000000 0.000000 8.560985 -19.216877 -25.619952 14.223707 0.505114 2.238050 0.000000 0.000000 0.000000 -8.456726 -22.860810 -10.625940 20.337398 -0.066815 -17.741095 0.000000 0.000000 0.000000 34.531032 10.687122 -9.329587 -28.795163 -8.401782 6.816955 0.000000 0.000000 0.000000 -7.398045 2.146767 2.215697 79.049185 59.221694 29.484811 -152.941135 44.041559 -116.679040 -22.901490 10.974892 -52.974798 5.856090 12.235133 0.102159 6.726271 18.729037 -30.577906 0.000000 0.000000 0.000000 18.067209 30.156253 -6.422969 -13.096153 3.571886 -27.659340 0.000000 0.000000 0.000000 -2.900265 21.044445 -25.927725 -15.561980 -0.125695 1.050590 0.000000 0.000000 0.000000 14.177760 24.995977 -8.931480 -21.542691 0.843844 -20.045934 0.000000 0.000000 0.000000 -37.503892 -8.857826 -9.279135 30.844795 6.268356 8.405572 0.000000 0.000000 0.000000 
-0.006333 0.802494 -0.020531 0.077993 -3.976002 -6.683797 38.103765 2.192685 -10.013144 -19.488986 3.869679 29.552692 3.270637 11.409631 9.029364 0.000000 0.000000 0.000000 -40.932854 -0.175310 -11.460121 25.586469 -6.876022 32.691906 -6.173472 -14.796884 7.656605 0.000000 0.000000 0.000000 -3.351326 -1.474863 40.118736 -5.976665 0.000397 -11.499269 6.970686 -2.680135 -3.720224 4.052461 2.673219 -16.667698 0.000000 0.000000 0.000000 5.983985 13.842288 -5.329273 -83.086008 -49.985941 15.261451 -176.168616 -56.940768 -168.886982 29.283282 -13.569820 -44.528980 -4.257956 -12.101037 -0.442149 -4.145135 -11.154168 -29.178888 0.000000 0.000000 0.000000 -12.617145 -27.587838 -8.106917 10.673086 -3.171897 -25.590481 0.000000 0.000000 0.000000 8.317912 -18.991410 -25.298966 13.552663 0.507104 2.160978 0.000000 0.000000 0.000000 -9.194288 -22.114326 -10.040540 20.427040 -0.205137 -18.269732 0.000000 0.000000 0.000000 34.267564 10.453416 -9.398232 -28.110969 -7.462503 6.660855 0.000000 0.000000 0.000000 -6.941697 1.737182 1.973310 78.475629 58.912579 29.048966 -152.831379 43.760999 -116.262188 -23.473369 11.059569 -53.102951 6.344560 12.472576 0.252686 5.393226 17.702653 -30.600451 0.000000 0.000000 0.000000 17.498344 28.907681 -6.462574 -12.671658 4.100208 -28.865732 0.000000 0.000000 0.000000 -1.421881 21.402610 -25.705186 -17.259586 0.029960 0.684198 0.000000 0.000000 0.000000 14.877161 25.569214 -8.777409 -23.549222 0.244335 -19.239247 0.000000 0.000000 0.000000 -37.319468 -8.546220 -9.450130 31.280480 6.839524 8.522019 0.000000 0.000000 0.000000 
-0.005627 0.781864 -0.017891 0.093886 -4.389076 -6.658960 41.896722 3.216096 -12.196042 -24.110865 5.966153 32.755812 3.153194 12.070834 10.847940 0.000000 0.000000 0.000000 -44.858845 -0.981713 -14.598841 30.740249 -9.489904 36.549450 -6.871302 -16.177361 8.640139 0.000000 0.000000 0.000000 -3.603803 -1.389400 42.736176 -6.157603 -0.039051 -11.884115 7.266247 -2.346871 -5.203855 4.036614 2.749265 -16.953293 0.000000 0.000000 0.000000 6.152026 12.988492 -4.914977 -84.602132 -50.744535 16.391858 -177.380635 -58.167591 -167.173803 29.002650 -13.309622 -44.886741 -3.485679 -12.191976 -0.573940 -1.600039 -10.106652 -28.157225 0.000000 0.000000 0.000000 -11.223592 -27.334953 -8.393560 10.058738 -3.710713 -26.326311 0.000000 0.000000 0.000000 8.785839 -19.070597 -25.525517 14.787033 0.369278 1.648210 0.000000 0.000000 0.000000 -9.175616 -22.890382 -10.328876 22.231753 0.263066 -17.477555 0.000000 0.000000 0.000000 34.695332 10.756329 -9.073459 -28.789205 -8.772990 6.843167 0.000000 0.000000 0.000000 -6.479632 1.623699 1.861068 77.840237 58.319762 28.333706 -152.456730 43.699555 -115.645257 -23.844269 11.225664 -53.961008 5.949188 11.912497 0.225762 5.869763 19.660532 -32.072780 0.000000 0.000000 0.000000 17.701802 29.894192 -6.360618 -12.168646 3.938635 -27.994131 0.000000 0.000000 0.000000 -2.410810 21.233873 -25.894526 -15.322310 0.109280 -0.083436 0.000000 0.000000 0.000000 14.847609 25.110946 -8.573554 -23.624050 0.538385 -20.542660 0.000000 0.000000 0.000000 -38.114496 -9.018880 -9.031135 32.338433 8.212018 8.856500 0.000000 0.000000 0.000000 
